# Blender v3.4.1 OBJ File: 'wood_block.blend'
# www.blender.org
mtllib wood_block.mtl
o Cube
v 0.029500 0.090500 -0.020000
v 0.029500 -0.090500 -0.020000
v 0.029500 0.090500 0.020000
v 0.029500 -0.090500 0.020000
v -0.029500 0.090500 -0.020000
v -0.029500 -0.090500 -0.020000
v -0.029500 0.090500 0.020000
v -0.029500 -0.090500 0.020000
vt 0.965443 0.997624
vt 0.023889 0.996764
vt 0.039597 0.933364
vt 0.960081 0.934499
vt 0.664759 0.221374
vt 0.624609 0.422939
vt 0.025530 0.420916
vt 0.042767 0.221191
vt 0.456846 0.642298
vt 0.451533 0.856751
vt 0.019138 0.855272
vt 0.032608 0.644013
vt 0.028767 0.863722
vt 0.977320 0.861475
vt 0.982367 0.927177
vt 0.022557 0.927824
vt 0.466729 0.002400
vt 0.447252 0.216827
vt 0.019901 0.217416
vt 0.042161 0.003166
vt 0.642323 0.427058
vt 0.685978 0.637008
vt 0.052856 0.635867
vt 0.000359 0.428139
vn 0.0000 1.0000 0.0000
vn 0.0000 0.0000 1.0000
vn -1.0000 0.0000 0.0000
vn 0.0000 -1.0000 0.0000
vn 1.0000 0.0000 0.0000
vn 0.0000 0.0000 -1.0000
usemtl Material
s off
f 1/1/1 5/2/1 7/3/1 3/4/1
f 4/5/2 3/6/2 7/7/2 8/8/2
f 8/9/3 7/10/3 5/11/3 6/12/3
f 6/13/4 2/14/4 4/15/4 8/16/4
f 2/17/5 1/18/5 3/19/5 4/20/5
f 6/21/6 5/22/6 1/23/6 2/24/6
